<svg xmlns="http://www.w3.org/2000/svg" width="40" height="40" viewBox="0 0 40 40" fill="none">
  <circle opacity="0.75" cx="30" cy="18" r="10" fill="url(#paint0_linear_4_2431)"/>
  <g filter="url(#filter0_b_4_2431)">
    <path fill-rule="evenodd" clip-rule="evenodd" d="M21.4583 31.6667H8.33333C6.49167 31.6667 5 30.175 5 28.3333V8.33333C5 6.49167 6.49167 5 8.33333 5H23.3333C25.175 5 26.6667 6.49167 26.6667 8.33333" fill="url(#paint1_linear_4_2431)"/>
    <path fill-rule="evenodd" clip-rule="evenodd" d="M10.2084 5.00002L23.3333 5C25.175 5 26.6667 6.49167 26.6667 8.33333L26.6667 28.3334C26.6667 30.175 25.175 31.6667 23.3334 31.6667L8.33333 31.6667C6.49167 31.6667 5 30.175 5 28.3333" fill="url(#paint2_linear_4_2431)"/>
    <path d="M21.4583 31.6667H8.33333M8.33333 31.6667C6.49167 31.6667 5 30.175 5 28.3333V8.33333C5 6.49167 6.49167 5 8.33333 5H23.3333M8.33333 31.6667L23.3334 31.6667C25.175 31.6667 26.6667 30.175 26.6667 28.3334L26.6667 8.33333C26.6667 6.49167 25.175 5 23.3333 5M23.3333 5L10.2084 5.00002" stroke="url(#paint3_radial_4_2431)" stroke-width="1.5" stroke-linecap="round"/>
  </g>
  <path d="M15.8317 26.3885C15.6783 26.3885 15.5533 26.5135 15.555 26.6668C15.555 26.8202 15.68 26.9452 15.8333 26.9452C15.9867 26.9452 16.1117 26.8202 16.1117 26.6668C16.1117 26.5135 15.9867 26.3885 15.8317 26.3885" stroke="#5F41D9" stroke-width="1.25" stroke-linecap="round"/>
  <g filter="url(#filter1_b_4_2431)">
    <path fill-rule="evenodd" clip-rule="evenodd" d="M24.7917 13.3335H31.6667C33.5084 13.3335 35 14.8252 35 16.6668V31.6668C35 33.5085 33.5084 35.0002 31.6667 35.0002H24.7917C22.95 35.0002 21.4584 33.5085 21.4584 31.6668V16.6668C21.4584 14.8252 22.95 13.3335 24.7917 13.3335Z" fill="url(#paint4_linear_4_2431)"/>
    <path fill-rule="evenodd" clip-rule="evenodd" d="M24.7917 13.3335H31.6667C33.5084 13.3335 35 14.8252 35 16.6668V31.6668C35 33.5085 33.5084 35.0002 31.6667 35.0002H24.7917C22.95 35.0002 21.4584 33.5085 21.4584 31.6668V16.6668C21.4584 14.8252 22.95 13.3335 24.7917 13.3335Z" stroke="url(#paint5_radial_4_2431)" stroke-width="1.5" stroke-linecap="round"/>
  </g>
  <path d="M26.7667 31.2498H29.6834" stroke="#5F41D9" stroke-width="1.25" stroke-linecap="round"/>
  <defs>
    <filter id="filter0_b_4_2431" x="-11.75" y="-11.75" width="55.1667" height="60.1665" filterUnits="userSpaceOnUse" color-interpolation-filters="sRGB">
      <feFlood flood-opacity="0" result="BackgroundImageFix"/>
      <feGaussianBlur in="BackgroundImageFix" stdDeviation="8"/>
      <feComposite in2="SourceAlpha" operator="in" result="effect1_backgroundBlur_4_2431"/>
      <feBlend mode="normal" in="SourceGraphic" in2="effect1_backgroundBlur_4_2431" result="shape"/>
    </filter>
    <filter id="filter1_b_4_2431" x="4.70837" y="-3.4165" width="47.0416" height="55.1665" filterUnits="userSpaceOnUse" color-interpolation-filters="sRGB">
      <feFlood flood-opacity="0" result="BackgroundImageFix"/>
      <feGaussianBlur in="BackgroundImageFix" stdDeviation="8"/>
      <feComposite in2="SourceAlpha" operator="in" result="effect1_backgroundBlur_4_2431"/>
      <feBlend mode="normal" in="SourceGraphic" in2="effect1_backgroundBlur_4_2431" result="shape"/>
    </filter>
    <linearGradient id="paint0_linear_4_2431" x1="40" y1="5.91667" x2="25.4167" y2="29.6667" gradientUnits="userSpaceOnUse">
      <stop stop-color="#EC3F9D"/>
      <stop offset="1" stop-color="#EC3F9D" stop-opacity="0"/>
    </linearGradient>
    <linearGradient id="paint1_linear_4_2431" x1="-16.6667" y1="-21.6667" x2="12.2324" y2="38.5894" gradientUnits="userSpaceOnUse">
      <stop stop-color="white" stop-opacity="0.4"/>
      <stop offset="1" stop-color="white" stop-opacity="0"/>
    </linearGradient>
    <linearGradient id="paint2_linear_4_2431" x1="-16.6667" y1="-21.6667" x2="12.2324" y2="38.5894" gradientUnits="userSpaceOnUse">
      <stop stop-color="white" stop-opacity="0.4"/>
      <stop offset="1" stop-color="white" stop-opacity="0"/>
    </linearGradient>
    <radialGradient id="paint3_radial_4_2431" cx="0" cy="0" r="1" gradientUnits="userSpaceOnUse" gradientTransform="translate(15.8333 18.3333) rotate(90) scale(13.3333 8.42594)">
      <stop stop-color="#D0C4EB"/>
      <stop offset="1" stop-color="#A089D6" stop-opacity="0.5"/>
    </radialGradient>
    <linearGradient id="paint4_linear_4_2431" x1="7.91671" y1="-8.33317" x2="34.9528" y2="35.0296" gradientUnits="userSpaceOnUse">
      <stop stop-color="white" stop-opacity="0.4"/>
      <stop offset="1" stop-color="white" stop-opacity="0"/>
    </linearGradient>
    <radialGradient id="paint5_radial_4_2431" cx="0" cy="0" r="1" gradientUnits="userSpaceOnUse" gradientTransform="translate(28.2292 24.1668) rotate(90) scale(10.8333 5.2662)">
      <stop stop-color="#D0C4EB"/>
      <stop offset="1" stop-color="#A089D6" stop-opacity="0.5"/>
    </radialGradient>
  </defs>
</svg>