<svg xmlns="http://www.w3.org/2000/svg" width="118" height="134" viewBox="0 0 118 134" fill="none">
  <path d="M118 132.742C118 133.437 117.44 134 116.749 134L116.532 134C115.842 134 115.282 133.437 115.282 132.742L115.282 132.524C115.282 131.829 115.842 131.265 116.532 131.265L116.749 131.265C117.44 131.265 118 131.829 118 132.524L118 132.742Z" fill="url(#paint0_linear_4_1330)"/>
  <path d="M74.8541 132.742C74.8541 133.437 74.2942 134 73.6036 134L73.3867 134C72.696 134 72.1362 133.437 72.1362 132.742L72.1362 132.524C72.1362 131.829 72.696 131.265 73.3867 131.265L73.6036 131.265C74.2942 131.265 74.8541 131.829 74.8541 132.524L74.8541 132.742Z" fill="url(#paint1_linear_4_1330)"/>
  <path d="M30.4579 134C31.1485 134 31.7084 133.437 31.7084 132.742L31.7084 132.524C31.7084 131.829 31.1485 131.265 30.4579 131.265L30.2409 131.265C29.5503 131.265 28.9905 131.829 28.9905 132.524L28.9905 132.742C28.9905 133.437 29.5503 134 30.2409 134L30.4579 134Z" fill="url(#paint2_linear_4_1330)"/>
  <path d="M118 45.2317C118 45.9266 117.44 46.4899 116.75 46.4899L116.533 46.4899C115.842 46.4899 115.282 45.9266 115.282 45.2317L115.282 45.0135C115.282 44.3186 115.842 43.7552 116.533 43.7552L116.75 43.7552C117.44 43.7552 118 44.3186 118 45.0135L118 45.2317Z" fill="url(#paint3_linear_4_1330)"/>
  <path d="M73.6038 46.4899C74.2944 46.4899 74.8543 45.9266 74.8543 45.2317L74.8543 45.0135C74.8543 44.3186 74.2944 43.7552 73.6038 43.7552L73.3869 43.7552C72.6963 43.7552 72.1364 44.3186 72.1364 45.0135L72.1364 45.2317C72.1364 45.9266 72.6963 46.4899 73.3869 46.4899L73.6038 46.4899Z" fill="url(#paint4_linear_4_1330)"/>
  <path d="M31.7086 45.2317C31.7086 45.9266 31.1487 46.4899 30.4581 46.4899L30.2412 46.4899C29.5505 46.4899 28.9907 45.9266 28.9907 45.2317L28.9907 45.0135C28.9907 44.3186 29.5505 43.7552 30.2412 43.7552L30.4581 43.7552C31.1487 43.7552 31.7086 44.3186 31.7086 45.0135L31.7086 45.2317Z" fill="url(#paint5_linear_4_1330)"/>
  <path d="M116.75 104.83C117.44 104.83 118 104.266 118 103.571L118 103.353C118 102.658 117.44 102.095 116.75 102.095L116.533 102.095C115.842 102.095 115.282 102.658 115.282 103.353L115.282 103.571C115.282 104.266 115.842 104.83 116.533 104.83L116.75 104.83Z" fill="url(#paint6_linear_4_1330)"/>
  <path d="M74.8543 103.571C74.8543 104.266 74.2944 104.83 73.6038 104.83L73.3869 104.83C72.6962 104.83 72.1364 104.266 72.1364 103.571L72.1364 103.353C72.1364 102.658 72.6962 102.095 73.3869 102.095L73.6038 102.095C74.2944 102.095 74.8543 102.658 74.8543 103.353L74.8543 103.571Z" fill="url(#paint7_linear_4_1330)"/>
  <path d="M30.4581 104.83C31.1487 104.83 31.7086 104.266 31.7086 103.571L31.7086 103.353C31.7086 102.658 31.1487 102.095 30.4581 102.095L30.2412 102.095C29.5505 102.095 28.9907 102.658 28.9907 103.353L28.9907 103.571C28.9907 104.266 29.5505 104.83 30.2412 104.83L30.4581 104.83Z" fill="url(#paint8_linear_4_1330)"/>
  <path d="M118 16.0618C118 16.7567 117.44 17.3201 116.75 17.3201L116.533 17.3201C115.842 17.3201 115.282 16.7567 115.282 16.0618L115.282 15.8436C115.282 15.1487 115.842 14.5854 116.533 14.5854L116.75 14.5854C117.44 14.5854 118 15.1487 118 15.8436L118 16.0618Z" fill="url(#paint9_linear_4_1330)"/>
  <path d="M73.6038 17.32C74.2944 17.32 74.8543 16.7567 74.8543 16.0618L74.8543 15.8436C74.8543 15.1487 74.2944 14.5854 73.6038 14.5854L73.3869 14.5854C72.6963 14.5854 72.1364 15.1487 72.1364 15.8436L72.1364 16.0618C72.1364 16.7567 72.6963 17.32 73.3869 17.32L73.6038 17.32Z" fill="url(#paint10_linear_4_1330)"/>
  <path d="M31.7086 16.0618C31.7086 16.7567 31.1487 17.32 30.4581 17.32L30.2412 17.32C29.5505 17.32 28.9907 16.7567 28.9907 16.0618L28.9907 15.8436C28.9907 15.1487 29.5505 14.5854 30.2412 14.5854L30.4581 14.5854C31.1487 14.5854 31.7086 15.1487 31.7086 15.8436L31.7086 16.0618Z" fill="url(#paint11_linear_4_1330)"/>
  <path d="M116.75 75.6598C117.44 75.6598 118 75.0965 118 74.4016L118 74.1833C118 73.4884 117.44 72.9251 116.75 72.9251L116.533 72.9251C115.842 72.9251 115.282 73.4884 115.282 74.1833L115.282 74.4016C115.282 75.0965 115.842 75.6598 116.533 75.6598L116.75 75.6598Z" fill="url(#paint12_linear_4_1330)"/>
  <path d="M74.8543 74.4016C74.8543 75.0965 74.2944 75.6598 73.6038 75.6598L73.3869 75.6598C72.6963 75.6598 72.1364 75.0965 72.1364 74.4016L72.1364 74.1833C72.1364 73.4884 72.6963 72.9251 73.3869 72.9251L73.6038 72.9251C74.2944 72.9251 74.8543 73.4884 74.8543 74.1833L74.8543 74.4016Z" fill="url(#paint13_linear_4_1330)"/>
  <path d="M30.4581 75.6598C31.1487 75.6598 31.7086 75.0965 31.7086 74.4016L31.7086 74.1833C31.7086 73.4884 31.1487 72.9251 30.4581 72.9251L30.2412 72.9251C29.5505 72.9251 28.9907 73.4884 28.9907 74.1833L28.9907 74.4016C28.9907 75.0965 29.5505 75.6598 30.2412 75.6598L30.4581 75.6598Z" fill="url(#paint14_linear_4_1330)"/>
  <path d="M116.75 119.415C117.44 119.415 118 118.852 118 118.157L118 117.939C118 117.244 117.44 116.68 116.75 116.68L116.533 116.68C115.842 116.68 115.282 117.244 115.282 117.939L115.282 118.157C115.282 118.852 115.842 119.415 116.533 119.415L116.75 119.415Z" fill="url(#paint15_linear_4_1330)"/>
  <path d="M74.8543 118.157C74.8543 118.852 74.2944 119.415 73.6038 119.415L73.3869 119.415C72.6962 119.415 72.1364 118.852 72.1364 118.157L72.1364 117.939C72.1364 117.244 72.6962 116.68 73.3869 116.68L73.6038 116.68C74.2944 116.68 74.8543 117.244 74.8543 117.939L74.8543 118.157Z" fill="url(#paint16_linear_4_1330)"/>
  <path d="M30.4581 119.415C31.1487 119.415 31.7086 118.852 31.7086 118.157L31.7086 117.939C31.7086 117.244 31.1487 116.68 30.4581 116.68L30.2412 116.68C29.5505 116.68 28.9907 117.244 28.9907 117.939L28.9907 118.157C28.9907 118.852 29.5505 119.415 30.2412 119.415L30.4581 119.415Z" fill="url(#paint17_linear_4_1330)"/>
  <path d="M118 30.6468C118 31.3417 117.44 31.905 116.75 31.905L116.533 31.905C115.842 31.905 115.282 31.3417 115.282 30.6468L115.282 30.4285C115.282 29.7336 115.842 29.1703 116.533 29.1703L116.75 29.1703C117.44 29.1703 118 29.7336 118 30.4285L118 30.6468Z" fill="url(#paint18_linear_4_1330)"/>
  <path d="M73.6038 31.905C74.2944 31.905 74.8543 31.3417 74.8543 30.6468L74.8543 30.4285C74.8543 29.7336 74.2944 29.1703 73.6038 29.1703L73.3869 29.1703C72.6963 29.1703 72.1364 29.7336 72.1364 30.4285L72.1364 30.6468C72.1364 31.3417 72.6963 31.905 73.3869 31.905L73.6038 31.905Z" fill="url(#paint19_linear_4_1330)"/>
  <path d="M31.7086 30.6468C31.7086 31.3417 31.1487 31.905 30.4581 31.905L30.2412 31.905C29.5505 31.905 28.9907 31.3417 28.9907 30.6468L28.9907 30.4285C28.9907 29.7336 29.5505 29.1703 30.2412 29.1703L30.4581 29.1703C31.1487 29.1703 31.7086 29.7336 31.7086 30.4285L31.7086 30.6468Z" fill="url(#paint20_linear_4_1330)"/>
  <path d="M116.75 90.2452C117.44 90.2452 118 89.6819 118 88.987L118 88.7687C118 88.0738 117.44 87.5105 116.75 87.5105L116.533 87.5105C115.842 87.5105 115.282 88.0738 115.282 88.7687L115.282 88.987C115.282 89.6819 115.842 90.2452 116.533 90.2452L116.75 90.2452Z" fill="url(#paint21_linear_4_1330)"/>
  <path d="M74.8543 88.987C74.8543 89.6818 74.2944 90.2452 73.6038 90.2452L73.3869 90.2452C72.6963 90.2452 72.1364 89.6818 72.1364 88.987L72.1364 88.7687C72.1364 88.0738 72.6963 87.5105 73.3869 87.5105L73.6038 87.5105C74.2944 87.5105 74.8543 88.0738 74.8543 88.7687L74.8543 88.987Z" fill="url(#paint22_linear_4_1330)"/>
  <path d="M30.4581 90.2452C31.1487 90.2452 31.7086 89.6818 31.7086 88.987L31.7086 88.7687C31.7086 88.0738 31.1487 87.5105 30.4581 87.5105L30.2412 87.5105C29.5505 87.5105 28.9907 88.0738 28.9907 88.7687L28.9907 88.987C28.9907 89.6818 29.5505 90.2452 30.2412 90.2452L30.4581 90.2452Z" fill="url(#paint23_linear_4_1330)"/>
  <path d="M118 1.47649C118 2.17139 117.44 2.7347 116.75 2.7347L116.533 2.7347C115.842 2.7347 115.282 2.17139 115.282 1.47649L115.282 1.25822C115.282 0.563324 115.842 1.50701e-05 116.533 1.51305e-05L116.75 1.51495e-05C117.44 1.52098e-05 118 0.563324 118 1.25822L118 1.47649Z" fill="url(#paint24_linear_4_1330)"/>
  <path d="M73.6038 2.73469C74.2944 2.73469 74.8543 2.17138 74.8543 1.47648L74.8543 1.25822C74.8543 0.56332 74.2944 1.14379e-05 73.6038 1.13775e-05L73.3869 1.13586e-05C72.6963 1.12982e-05 72.1364 0.56332 72.1364 1.25822L72.1364 1.47648C72.1364 2.17138 72.6963 2.73469 73.3869 2.73469L73.6038 2.73469Z" fill="url(#paint25_linear_4_1330)"/>
  <path d="M31.7086 1.47648C31.7086 2.17138 31.1487 2.73469 30.4581 2.73469L30.2412 2.73469C29.5505 2.73469 28.9907 2.17138 28.9907 1.47648L28.9907 1.25822C28.9907 0.563316 29.5505 7.52629e-06 30.2412 7.58667e-06L30.4581 7.60563e-06C31.1487 7.66601e-06 31.7086 0.563316 31.7086 1.25822L31.7086 1.47648Z" fill="url(#paint26_linear_4_1330)"/>
  <path d="M116.75 61.0749C117.44 61.0749 118 60.5116 118 59.8167L118 59.5984C118 58.9035 117.44 58.3402 116.75 58.3402L116.533 58.3402C115.842 58.3402 115.282 58.9035 115.282 59.5984L115.282 59.8167C115.282 60.5116 115.842 61.0749 116.533 61.0749L116.75 61.0749Z" fill="url(#paint27_linear_4_1330)"/>
  <path d="M74.8543 59.8167C74.8543 60.5116 74.2944 61.0749 73.6038 61.0749L73.3869 61.0749C72.6963 61.0749 72.1364 60.5116 72.1364 59.8167L72.1364 59.5984C72.1364 58.9035 72.6963 58.3402 73.3869 58.3402L73.6038 58.3402C74.2944 58.3402 74.8543 58.9035 74.8543 59.5984L74.8543 59.8167Z" fill="url(#paint28_linear_4_1330)"/>
  <path d="M30.4581 61.0749C31.1487 61.0749 31.7086 60.5116 31.7086 59.8167L31.7086 59.5984C31.7086 58.9035 31.1487 58.3402 30.4581 58.3402L30.2412 58.3402C29.5505 58.3402 28.9907 58.9035 28.9907 59.5984L28.9907 59.8167C28.9907 60.5116 29.5505 61.0749 30.2412 61.0749L30.4581 61.0749Z" fill="url(#paint29_linear_4_1330)"/>
  <path d="M87.7588 134C88.4495 134 89.0093 133.437 89.0093 132.742L89.0093 132.524C89.0093 131.829 88.4495 131.265 87.7588 131.265L87.5419 131.265C86.8513 131.265 86.2914 131.829 86.2914 132.524L86.2914 132.742C86.2914 133.437 86.8513 134 87.5419 134L87.7588 134Z" fill="url(#paint30_linear_4_1330)"/>
  <path d="M45.8636 132.742C45.8636 133.437 45.3037 134 44.6131 134L44.3962 134C43.7056 134 43.1457 133.437 43.1457 132.742L43.1457 132.524C43.1457 131.829 43.7056 131.265 44.3962 131.265L44.6131 131.265C45.3037 131.265 45.8636 131.829 45.8636 132.524L45.8636 132.742Z" fill="url(#paint31_linear_4_1330)"/>
  <path d="M1.46739 134C2.15801 134 2.71787 133.437 2.71787 132.742L2.71787 132.524C2.71787 131.829 2.15801 131.265 1.46739 131.265L1.25047 131.265C0.559838 131.265 -1.5069e-05 131.829 -1.51297e-05 132.524L-1.51488e-05 132.742C-1.52095e-05 133.437 0.559837 134 1.25047 134L1.46739 134Z" fill="url(#paint32_linear_4_1330)"/>
  <path d="M89.0093 45.2317C89.0093 45.9266 88.4495 46.4899 87.7588 46.4899L87.5419 46.4899C86.8513 46.4899 86.2914 45.9266 86.2914 45.2317L86.2914 45.0135C86.2914 44.3186 86.8513 43.7552 87.5419 43.7552L87.7588 43.7552C88.4495 43.7552 89.0093 44.3186 89.0093 45.0135L89.0093 45.2317Z" fill="url(#paint33_linear_4_1330)"/>
  <path d="M44.6131 46.4899C45.3037 46.4899 45.8636 45.9266 45.8636 45.2317L45.8636 45.0135C45.8636 44.3186 45.3037 43.7552 44.6131 43.7552L44.3962 43.7552C43.7056 43.7552 43.1457 44.3186 43.1457 45.0135L43.1457 45.2317C43.1457 45.9266 43.7056 46.4899 44.3962 46.4899L44.6131 46.4899Z" fill="url(#paint34_linear_4_1330)"/>
  <path d="M2.71788 45.2317C2.71788 45.9266 2.15802 46.4899 1.4674 46.4899L1.25047 46.4899C0.559845 46.4899 -7.55917e-06 45.9266 -7.49842e-06 45.2317L-7.47934e-06 45.0134C-7.41859e-06 44.3186 0.559845 43.7552 1.25047 43.7552L1.4674 43.7552C2.15802 43.7552 2.71788 44.3186 2.71788 45.0134L2.71788 45.2317Z" fill="url(#paint35_linear_4_1330)"/>
  <path d="M87.7588 104.83C88.4495 104.83 89.0093 104.266 89.0093 103.571L89.0093 103.353C89.0093 102.658 88.4495 102.095 87.7588 102.095L87.5419 102.095C86.8513 102.095 86.2914 102.658 86.2914 103.353L86.2914 103.571C86.2914 104.266 86.8513 104.83 87.5419 104.83L87.7588 104.83Z" fill="url(#paint36_linear_4_1330)"/>
  <path d="M45.8636 103.571C45.8636 104.266 45.3037 104.83 44.6131 104.83L44.3962 104.83C43.7056 104.83 43.1457 104.266 43.1457 103.571L43.1457 103.353C43.1457 102.658 43.7056 102.095 44.3962 102.095L44.6131 102.095C45.3037 102.095 45.8636 102.658 45.8636 103.353L45.8636 103.571Z" fill="url(#paint37_linear_4_1330)"/>
  <path d="M1.46739 104.83C2.15801 104.83 2.71788 104.266 2.71788 103.571L2.71788 103.353C2.71788 102.658 2.15802 102.095 1.46739 102.095L1.25047 102.095C0.55984 102.095 -1.25188e-05 102.658 -1.25796e-05 103.353L-1.25986e-05 103.571C-1.26594e-05 104.266 0.55984 104.83 1.25047 104.83L1.46739 104.83Z" fill="url(#paint38_linear_4_1330)"/>
  <path d="M89.0093 16.0618C89.0093 16.7567 88.4495 17.3201 87.7588 17.3201L87.5419 17.3201C86.8513 17.3201 86.2914 16.7567 86.2914 16.0618L86.2914 15.8436C86.2914 15.1487 86.8513 14.5854 87.5419 14.5854L87.7588 14.5854C88.4495 14.5854 89.0093 15.1487 89.0093 15.8436L89.0093 16.0618Z" fill="url(#paint39_linear_4_1330)"/>
  <path d="M44.6131 17.32C45.3037 17.32 45.8636 16.7567 45.8636 16.0618L45.8636 15.8436C45.8636 15.1487 45.3037 14.5854 44.6131 14.5854L44.3962 14.5854C43.7056 14.5854 43.1457 15.1487 43.1457 15.8436L43.1457 16.0618C43.1457 16.7567 43.7056 17.32 44.3962 17.32L44.6131 17.32Z" fill="url(#paint40_linear_4_1330)"/>
  <path d="M2.71788 16.0618C2.71788 16.7567 2.15802 17.32 1.4674 17.32L1.25048 17.32C0.559848 17.32 -5.00906e-06 16.7567 -4.94831e-06 16.0618L-4.92923e-06 15.8436C-4.86848e-06 15.1487 0.559848 14.5854 1.25048 14.5854L1.4674 14.5854C2.15802 14.5854 2.71788 15.1487 2.71788 15.8436L2.71788 16.0618Z" fill="url(#paint41_linear_4_1330)"/>
  <path d="M87.7588 75.6598C88.4495 75.6598 89.0093 75.0965 89.0093 74.4016L89.0093 74.1833C89.0093 73.4884 88.4495 72.9251 87.7588 72.9251L87.5419 72.9251C86.8513 72.9251 86.2914 73.4884 86.2914 74.1833L86.2914 74.4016C86.2914 75.0965 86.8513 75.6598 87.5419 75.6598L87.7588 75.6598Z" fill="url(#paint42_linear_4_1330)"/>
  <path d="M45.8636 74.4016C45.8636 75.0965 45.3037 75.6598 44.6131 75.6598L44.3962 75.6598C43.7056 75.6598 43.1457 75.0965 43.1457 74.4016L43.1457 74.1833C43.1457 73.4884 43.7056 72.9251 44.3962 72.9251L44.6131 72.9251C45.3037 72.9251 45.8636 73.4884 45.8636 74.1833L45.8636 74.4016Z" fill="url(#paint43_linear_4_1330)"/>
  <path d="M1.4674 75.6598C2.15802 75.6598 2.71788 75.0965 2.71788 74.4016L2.71788 74.1833C2.71788 73.4884 2.15802 72.9251 1.4674 72.9251L1.25047 72.9251C0.559843 72.9251 -9.9687e-06 73.4884 -1.00295e-05 74.1833L-1.00485e-05 74.4016C-1.01093e-05 75.0965 0.559842 75.6598 1.25047 75.6598L1.4674 75.6598Z" fill="url(#paint44_linear_4_1330)"/>
  <path d="M87.7588 119.415C88.4495 119.415 89.0093 118.852 89.0093 118.157L89.0093 117.939C89.0093 117.244 88.4495 116.68 87.7588 116.68L87.5419 116.68C86.8513 116.68 86.2914 117.244 86.2914 117.939L86.2914 118.157C86.2914 118.852 86.8513 119.415 87.5419 119.415L87.7588 119.415Z" fill="url(#paint45_linear_4_1330)"/>
  <path d="M45.8636 118.157C45.8636 118.852 45.3037 119.415 44.6131 119.415L44.3962 119.415C43.7056 119.415 43.1457 118.852 43.1457 118.157L43.1457 117.939C43.1457 117.244 43.7056 116.68 44.3962 116.68L44.6131 116.68C45.3037 116.68 45.8636 117.244 45.8636 117.939L45.8636 118.157Z" fill="url(#paint46_linear_4_1330)"/>
  <path d="M1.46739 119.415C2.15801 119.415 2.71787 118.852 2.71787 118.157L2.71787 117.939C2.71787 117.244 2.15801 116.68 1.46739 116.68L1.25047 116.68C0.559839 116.68 -1.37939e-05 117.244 -1.38547e-05 117.939L-1.38737e-05 118.157C-1.39345e-05 118.852 0.559839 119.415 1.25047 119.415L1.46739 119.415Z" fill="url(#paint47_linear_4_1330)"/>
  <path d="M89.0093 30.6468C89.0093 31.3417 88.4495 31.905 87.7588 31.905L87.5419 31.905C86.8513 31.905 86.2914 31.3417 86.2914 30.6468L86.2914 30.4285C86.2914 29.7336 86.8513 29.1703 87.5419 29.1703L87.7588 29.1703C88.4495 29.1703 89.0093 29.7336 89.0093 30.4285L89.0093 30.6468Z" fill="url(#paint48_linear_4_1330)"/>
  <path d="M44.6131 31.905C45.3037 31.905 45.8636 31.3417 45.8636 30.6468L45.8636 30.4285C45.8636 29.7336 45.3037 29.1703 44.6131 29.1703L44.3962 29.1703C43.7056 29.1703 43.1457 29.7336 43.1457 30.4285L43.1457 30.6468C43.1457 31.3417 43.7056 31.905 44.3962 31.905L44.6131 31.905Z" fill="url(#paint49_linear_4_1330)"/>
  <path d="M2.71788 30.6468C2.71788 31.3417 2.15802 31.905 1.4674 31.905L1.25047 31.905C0.559846 31.905 -6.28411e-06 31.3417 -6.22336e-06 30.6468L-6.20428e-06 30.4285C-6.14353e-06 29.7336 0.559847 29.1703 1.25047 29.1703L1.4674 29.1703C2.15802 29.1703 2.71788 29.7336 2.71788 30.4285L2.71788 30.6468Z" fill="url(#paint50_linear_4_1330)"/>
  <path d="M87.7588 90.2452C88.4495 90.2452 89.0093 89.6818 89.0093 88.987L89.0093 88.7687C89.0093 88.0738 88.4495 87.5105 87.7588 87.5105L87.5419 87.5105C86.8513 87.5105 86.2914 88.0738 86.2914 88.7687L86.2914 88.987C86.2914 89.6818 86.8513 90.2452 87.5419 90.2452L87.7588 90.2452Z" fill="url(#paint51_linear_4_1330)"/>
  <path d="M45.8636 88.987C45.8636 89.6818 45.3037 90.2452 44.6131 90.2452L44.3962 90.2452C43.7056 90.2452 43.1457 89.6818 43.1457 88.987L43.1457 88.7687C43.1457 88.0738 43.7056 87.5105 44.3962 87.5105L44.6131 87.5105C45.3037 87.5105 45.8636 88.0738 45.8636 88.7687L45.8636 88.987Z" fill="url(#paint52_linear_4_1330)"/>
  <path d="M1.4674 90.2452C2.15802 90.2452 2.71788 89.6818 2.71788 88.987L2.71788 88.7687C2.71788 88.0738 2.15802 87.5105 1.4674 87.5105L1.25047 87.5105C0.559841 87.5105 -1.12438e-05 88.0738 -1.13045e-05 88.7687L-1.13236e-05 88.987C-1.13844e-05 89.6818 0.559841 90.2452 1.25047 90.2452L1.4674 90.2452Z" fill="url(#paint53_linear_4_1330)"/>
  <path d="M89.0093 1.47648C89.0093 2.17138 88.4495 2.73469 87.7588 2.73469L87.5419 2.73469C86.8513 2.73469 86.2914 2.17138 86.2914 1.47648L86.2914 1.25822C86.2914 0.563321 86.8513 1.25357e-05 87.5419 1.25961e-05L87.7588 1.2615e-05C88.4495 1.26754e-05 89.0093 0.563321 89.0093 1.25822L89.0093 1.47648Z" fill="url(#paint54_linear_4_1330)"/>
  <path d="M44.6131 2.73469C45.3037 2.73469 45.8636 2.17138 45.8636 1.47648L45.8636 1.25822C45.8636 0.563318 45.3037 8.90348e-06 44.6131 8.8431e-06L44.3962 8.82414e-06C43.7056 8.76376e-06 43.1457 0.563317 43.1457 1.25822L43.1457 1.47648C43.1457 2.17138 43.7056 2.73469 44.3962 2.73469L44.6131 2.73469Z" fill="url(#paint55_linear_4_1330)"/>
  <path d="M2.71788 1.47648C2.71788 2.17138 2.15802 2.73469 1.4674 2.73469L1.25048 2.73469C0.559849 2.73469 -3.73397e-06 2.17138 -3.67322e-06 1.47648L-3.65413e-06 1.25821C-3.59338e-06 0.563314 0.559849 4.99184e-06 1.25048 5.05222e-06L1.4674 5.07118e-06C2.15802 5.13156e-06 2.71788 0.563314 2.71788 1.25821L2.71788 1.47648Z" fill="url(#paint56_linear_4_1330)"/>
  <path d="M87.7588 61.0749C88.4495 61.0749 89.0093 60.5116 89.0093 59.8167L89.0093 59.5984C89.0093 58.9035 88.4495 58.3402 87.7588 58.3402L87.5419 58.3402C86.8513 58.3402 86.2914 58.9035 86.2914 59.5984L86.2914 59.8167C86.2914 60.5116 86.8513 61.0749 87.5419 61.0749L87.7588 61.0749Z" fill="url(#paint57_linear_4_1330)"/>
  <path d="M45.8636 59.8167C45.8636 60.5116 45.3037 61.0749 44.6131 61.0749L44.3962 61.0749C43.7056 61.0749 43.1457 60.5116 43.1457 59.8167L43.1457 59.5984C43.1457 58.9035 43.7056 58.3402 44.3962 58.3402L44.6131 58.3402C45.3037 58.3402 45.8636 58.9035 45.8636 59.5984L45.8636 59.8167Z" fill="url(#paint58_linear_4_1330)"/>
  <path d="M1.4674 61.0749C2.15802 61.0749 2.71788 60.5115 2.71788 59.8167L2.71788 59.5984C2.71788 58.9035 2.15802 58.3402 1.4674 58.3402L1.25047 58.3402C0.559844 58.3402 -8.69365e-06 58.9035 -8.75439e-06 59.5984L-8.77348e-06 59.8167C-8.83423e-06 60.5115 0.559844 61.0749 1.25047 61.0749L1.4674 61.0749Z" fill="url(#paint59_linear_4_1330)"/>
  <path d="M102.254 134C102.945 134 103.504 133.437 103.504 132.742L103.504 132.524C103.504 131.829 102.945 131.265 102.254 131.265L102.037 131.265C101.346 131.265 100.787 131.829 100.787 132.524L100.787 132.742C100.787 133.437 101.346 134 102.037 134L102.254 134Z" fill="url(#paint60_linear_4_1330)"/>
  <path d="M60.3587 132.742C60.3587 133.437 59.7989 134 59.1082 134L58.8913 134C58.2007 134 57.6408 133.437 57.6408 132.742L57.6408 132.524C57.6408 131.829 58.2007 131.265 58.8913 131.265L59.1082 131.265C59.7989 131.265 60.3587 131.829 60.3587 132.524L60.3587 132.742Z" fill="url(#paint61_linear_4_1330)"/>
  <path d="M15.9625 134C16.6532 134 17.213 133.437 17.213 132.742L17.213 132.524C17.213 131.829 16.6532 131.265 15.9625 131.265L15.7456 131.265C15.055 131.265 14.4951 131.829 14.4951 132.524L14.4951 132.742C14.4951 133.437 15.055 134 15.7456 134L15.9625 134Z" fill="url(#paint62_linear_4_1330)"/>
  <path d="M103.504 45.2317C103.504 45.9266 102.945 46.4899 102.254 46.4899L102.037 46.4899C101.346 46.4899 100.787 45.9266 100.787 45.2317L100.787 45.0135C100.787 44.3186 101.346 43.7552 102.037 43.7552L102.254 43.7552C102.945 43.7552 103.504 44.3186 103.504 45.0135L103.504 45.2317Z" fill="url(#paint63_linear_4_1330)"/>
  <path d="M59.1083 46.4899C59.7989 46.4899 60.3587 45.9266 60.3587 45.2317L60.3587 45.0135C60.3587 44.3186 59.7989 43.7552 59.1083 43.7552L58.8913 43.7552C58.2007 43.7552 57.6409 44.3186 57.6409 45.0135L57.6409 45.2317C57.6409 45.9266 58.2007 46.4899 58.8913 46.4899L59.1083 46.4899Z" fill="url(#paint64_linear_4_1330)"/>
  <path d="M17.213 45.2317C17.213 45.9266 16.6532 46.4899 15.9625 46.4899L15.7456 46.4899C15.055 46.4899 14.4951 45.9266 14.4951 45.2317L14.4951 45.0134C14.4951 44.3186 15.055 43.7552 15.7456 43.7552L15.9625 43.7552C16.6532 43.7552 17.213 44.3186 17.213 45.0134L17.213 45.2317Z" fill="url(#paint65_linear_4_1330)"/>
  <path d="M102.254 104.83C102.945 104.83 103.504 104.266 103.504 103.571L103.504 103.353C103.504 102.658 102.945 102.095 102.254 102.095L102.037 102.095C101.346 102.095 100.787 102.658 100.787 103.353L100.787 103.571C100.787 104.266 101.346 104.83 102.037 104.83L102.254 104.83Z" fill="url(#paint66_linear_4_1330)"/>
  <path d="M60.3587 103.571C60.3587 104.266 59.7989 104.83 59.1083 104.83L58.8913 104.83C58.2007 104.83 57.6408 104.266 57.6408 103.571L57.6408 103.353C57.6408 102.658 58.2007 102.095 58.8913 102.095L59.1083 102.095C59.7989 102.095 60.3587 102.658 60.3587 103.353L60.3587 103.571Z" fill="url(#paint67_linear_4_1330)"/>
  <path d="M15.9625 104.83C16.6532 104.83 17.213 104.266 17.213 103.571L17.213 103.353C17.213 102.658 16.6532 102.095 15.9625 102.095L15.7456 102.095C15.055 102.095 14.4951 102.658 14.4951 103.353L14.4951 103.571C14.4951 104.266 15.055 104.83 15.7456 104.83L15.9625 104.83Z" fill="url(#paint68_linear_4_1330)"/>
  <path d="M103.504 16.0618C103.504 16.7567 102.945 17.3201 102.254 17.3201L102.037 17.3201C101.346 17.3201 100.787 16.7567 100.787 16.0618L100.787 15.8436C100.787 15.1487 101.346 14.5854 102.037 14.5854L102.254 14.5854C102.945 14.5854 103.504 15.1487 103.504 15.8436L103.504 16.0618Z" fill="url(#paint69_linear_4_1330)"/>
  <path d="M59.1083 17.32C59.7989 17.32 60.3587 16.7567 60.3587 16.0618L60.3587 15.8436C60.3587 15.1487 59.7989 14.5854 59.1083 14.5854L58.8913 14.5854C58.2007 14.5854 57.6409 15.1487 57.6409 15.8436L57.6409 16.0618C57.6409 16.7567 58.2007 17.32 58.8913 17.32L59.1083 17.32Z" fill="url(#paint70_linear_4_1330)"/>
  <path d="M17.213 16.0618C17.213 16.7567 16.6532 17.32 15.9625 17.32L15.7456 17.32C15.055 17.32 14.4951 16.7567 14.4951 16.0618L14.4951 15.8436C14.4951 15.1487 15.055 14.5854 15.7456 14.5854L15.9625 14.5854C16.6532 14.5854 17.213 15.1487 17.213 15.8436L17.213 16.0618Z" fill="url(#paint71_linear_4_1330)"/>
  <path d="M102.254 75.6598C102.945 75.6598 103.504 75.0965 103.504 74.4016L103.504 74.1833C103.504 73.4884 102.945 72.9251 102.254 72.9251L102.037 72.9251C101.346 72.9251 100.787 73.4884 100.787 74.1833L100.787 74.4016C100.787 75.0965 101.346 75.6598 102.037 75.6598L102.254 75.6598Z" fill="url(#paint72_linear_4_1330)"/>
  <path d="M60.3587 74.4016C60.3587 75.0965 59.7989 75.6598 59.1083 75.6598L58.8913 75.6598C58.2007 75.6598 57.6408 75.0965 57.6408 74.4016L57.6408 74.1833C57.6408 73.4884 58.2007 72.9251 58.8913 72.9251L59.1083 72.9251C59.7989 72.9251 60.3587 73.4884 60.3587 74.1833L60.3587 74.4016Z" fill="url(#paint73_linear_4_1330)"/>
  <path d="M15.9625 75.6598C16.6532 75.6598 17.213 75.0965 17.213 74.4016L17.213 74.1833C17.213 73.4884 16.6532 72.9251 15.9625 72.9251L15.7456 72.9251C15.055 72.9251 14.4951 73.4884 14.4951 74.1833L14.4951 74.4016C14.4951 75.0965 15.055 75.6598 15.7456 75.6598L15.9625 75.6598Z" fill="url(#paint74_linear_4_1330)"/>
  <path d="M102.254 119.415C102.945 119.415 103.504 118.852 103.504 118.157L103.504 117.939C103.504 117.244 102.945 116.68 102.254 116.68L102.037 116.68C101.346 116.68 100.787 117.244 100.787 117.939L100.787 118.157C100.787 118.852 101.346 119.415 102.037 119.415L102.254 119.415Z" fill="url(#paint75_linear_4_1330)"/>
  <path d="M60.3587 118.157C60.3587 118.852 59.7989 119.415 59.1083 119.415L58.8913 119.415C58.2007 119.415 57.6408 118.852 57.6408 118.157L57.6408 117.939C57.6408 117.244 58.2007 116.68 58.8913 116.68L59.1083 116.68C59.7989 116.68 60.3587 117.244 60.3587 117.939L60.3587 118.157Z" fill="url(#paint76_linear_4_1330)"/>
  <path d="M15.9625 119.415C16.6532 119.415 17.213 118.852 17.213 118.157L17.213 117.939C17.213 117.244 16.6532 116.68 15.9625 116.68L15.7456 116.68C15.055 116.68 14.4951 117.244 14.4951 117.939L14.4951 118.157C14.4951 118.852 15.055 119.415 15.7456 119.415L15.9625 119.415Z" fill="url(#paint77_linear_4_1330)"/>
  <path d="M103.504 30.6468C103.504 31.3417 102.945 31.905 102.254 31.905L102.037 31.905C101.346 31.905 100.787 31.3417 100.787 30.6468L100.787 30.4285C100.787 29.7336 101.346 29.1703 102.037 29.1703L102.254 29.1703C102.945 29.1703 103.504 29.7336 103.504 30.4285L103.504 30.6468Z" fill="url(#paint78_linear_4_1330)"/>
  <path d="M59.1083 31.905C59.7989 31.905 60.3587 31.3417 60.3587 30.6468L60.3587 30.4285C60.3587 29.7336 59.7989 29.1703 59.1083 29.1703L58.8913 29.1703C58.2007 29.1703 57.6409 29.7336 57.6409 30.4285L57.6409 30.6468C57.6409 31.3417 58.2007 31.905 58.8913 31.905L59.1083 31.905Z" fill="url(#paint79_linear_4_1330)"/>
  <path d="M17.213 30.6468C17.213 31.3417 16.6532 31.905 15.9625 31.905L15.7456 31.905C15.055 31.905 14.4951 31.3417 14.4951 30.6468L14.4951 30.4285C14.4951 29.7336 15.055 29.1703 15.7456 29.1703L15.9625 29.1703C16.6532 29.1703 17.213 29.7336 17.213 30.4285L17.213 30.6468Z" fill="url(#paint80_linear_4_1330)"/>
  <path d="M102.254 90.2452C102.945 90.2452 103.504 89.6818 103.504 88.987L103.504 88.7687C103.504 88.0738 102.945 87.5105 102.254 87.5105L102.037 87.5105C101.346 87.5105 100.787 88.0738 100.787 88.7687L100.787 88.987C100.787 89.6818 101.346 90.2452 102.037 90.2452L102.254 90.2452Z" fill="url(#paint81_linear_4_1330)"/>
  <path d="M60.3587 88.987C60.3587 89.6818 59.7989 90.2452 59.1083 90.2452L58.8913 90.2452C58.2007 90.2452 57.6408 89.6818 57.6408 88.987L57.6408 88.7687C57.6408 88.0738 58.2007 87.5105 58.8913 87.5105L59.1083 87.5105C59.7989 87.5105 60.3587 88.0738 60.3587 88.7687L60.3587 88.987Z" fill="url(#paint82_linear_4_1330)"/>
  <path d="M15.9625 90.2452C16.6532 90.2452 17.213 89.6818 17.213 88.987L17.213 88.7687C17.213 88.0738 16.6532 87.5105 15.9625 87.5105L15.7456 87.5105C15.055 87.5105 14.4951 88.0738 14.4951 88.7687L14.4951 88.987C14.4951 89.6818 15.055 90.2452 15.7456 90.2452L15.9625 90.2452Z" fill="url(#paint83_linear_4_1330)"/>
  <path d="M103.504 1.47648C103.504 2.17139 102.945 2.73469 102.254 2.73469L102.037 2.73469C101.346 2.73469 100.787 2.17139 100.787 1.47648L100.787 1.25822C100.787 0.563322 101.346 1.38029e-05 102.037 1.38633e-05L102.254 1.38822e-05C102.945 1.39426e-05 103.504 0.563323 103.504 1.25822L103.504 1.47648Z" fill="url(#paint84_linear_4_1330)"/>
  <path d="M59.1083 2.73469C59.7989 2.73469 60.3587 2.17138 60.3587 1.47648L60.3587 1.25822C60.3587 0.563319 59.7989 1.01707e-05 59.1083 1.01103e-05L58.8913 1.00913e-05C58.2007 1.0031e-05 57.6409 0.563319 57.6409 1.25822L57.6409 1.47648C57.6409 2.17138 58.2007 2.73469 58.8913 2.73469L59.1083 2.73469Z" fill="url(#paint85_linear_4_1330)"/>
  <path d="M17.213 1.47648C17.213 2.17138 16.6532 2.73469 15.9625 2.73469L15.7456 2.73469C15.055 2.73469 14.4951 2.17138 14.4951 1.47648L14.4951 1.25822C14.4951 0.563315 15.055 6.25905e-06 15.7456 6.31943e-06L15.9625 6.33839e-06C16.6532 6.39877e-06 17.213 0.563315 17.213 1.25822L17.213 1.47648Z" fill="url(#paint86_linear_4_1330)"/>
  <path d="M102.254 61.0749C102.945 61.0749 103.504 60.5116 103.504 59.8167L103.504 59.5984C103.504 58.9035 102.945 58.3402 102.254 58.3402L102.037 58.3402C101.346 58.3402 100.787 58.9035 100.787 59.5984L100.787 59.8167C100.787 60.5116 101.346 61.0749 102.037 61.0749L102.254 61.0749Z" fill="url(#paint87_linear_4_1330)"/>
  <path d="M60.3587 59.8167C60.3587 60.5116 59.7989 61.0749 59.1083 61.0749L58.8913 61.0749C58.2007 61.0749 57.6408 60.5116 57.6408 59.8167L57.6408 59.5984C57.6408 58.9035 58.2007 58.3402 58.8913 58.3402L59.1083 58.3402C59.7989 58.3402 60.3587 58.9035 60.3587 59.5984L60.3587 59.8167Z" fill="url(#paint88_linear_4_1330)"/>
  <path d="M15.9625 61.0749C16.6532 61.0749 17.213 60.5115 17.213 59.8167L17.213 59.5984C17.213 58.9035 16.6532 58.3402 15.9625 58.3402L15.7456 58.3402C15.055 58.3402 14.4951 58.9035 14.4951 59.5984L14.4951 59.8167C14.4951 60.5115 15.055 61.0749 15.7456 61.0749L15.9625 61.0749Z" fill="url(#paint89_linear_4_1330)"/>
  <defs>
    <linearGradient id="paint0_linear_4_1330" x1="129.287" y1="-36.0769" x2="36.4259" y2="79.4721" gradientUnits="userSpaceOnUse">
      <stop stop-color="#99F3F5"/>
      <stop offset="1" stop-color="#99F3F5" stop-opacity="0"/>
    </linearGradient>
    <linearGradient id="paint1_linear_4_1330" x1="129.287" y1="-36.0769" x2="36.4259" y2="79.4721" gradientUnits="userSpaceOnUse">
      <stop stop-color="#99F3F5"/>
      <stop offset="1" stop-color="#99F3F5" stop-opacity="0"/>
    </linearGradient>
    <linearGradient id="paint2_linear_4_1330" x1="129.287" y1="-36.0769" x2="36.4259" y2="79.4721" gradientUnits="userSpaceOnUse">
      <stop stop-color="#99F3F5"/>
      <stop offset="1" stop-color="#99F3F5" stop-opacity="0"/>
    </linearGradient>
    <linearGradient id="paint3_linear_4_1330" x1="129.287" y1="-36.0769" x2="36.4259" y2="79.4721" gradientUnits="userSpaceOnUse">
      <stop stop-color="#99F3F5"/>
      <stop offset="1" stop-color="#99F3F5" stop-opacity="0"/>
    </linearGradient>
    <linearGradient id="paint4_linear_4_1330" x1="129.287" y1="-36.0769" x2="36.4259" y2="79.4721" gradientUnits="userSpaceOnUse">
      <stop stop-color="#99F3F5"/>
      <stop offset="1" stop-color="#99F3F5" stop-opacity="0"/>
    </linearGradient>
    <linearGradient id="paint5_linear_4_1330" x1="129.287" y1="-36.0769" x2="36.4259" y2="79.4721" gradientUnits="userSpaceOnUse">
      <stop stop-color="#99F3F5"/>
      <stop offset="1" stop-color="#99F3F5" stop-opacity="0"/>
    </linearGradient>
    <linearGradient id="paint6_linear_4_1330" x1="129.287" y1="-36.0769" x2="36.4259" y2="79.4721" gradientUnits="userSpaceOnUse">
      <stop stop-color="#99F3F5"/>
      <stop offset="1" stop-color="#99F3F5" stop-opacity="0"/>
    </linearGradient>
    <linearGradient id="paint7_linear_4_1330" x1="129.287" y1="-36.0769" x2="36.4259" y2="79.4721" gradientUnits="userSpaceOnUse">
      <stop stop-color="#99F3F5"/>
      <stop offset="1" stop-color="#99F3F5" stop-opacity="0"/>
    </linearGradient>
    <linearGradient id="paint8_linear_4_1330" x1="129.287" y1="-36.0769" x2="36.4259" y2="79.4721" gradientUnits="userSpaceOnUse">
      <stop stop-color="#99F3F5"/>
      <stop offset="1" stop-color="#99F3F5" stop-opacity="0"/>
    </linearGradient>
    <linearGradient id="paint9_linear_4_1330" x1="129.287" y1="-36.0769" x2="36.4259" y2="79.4721" gradientUnits="userSpaceOnUse">
      <stop stop-color="#99F3F5"/>
      <stop offset="1" stop-color="#99F3F5" stop-opacity="0"/>
    </linearGradient>
    <linearGradient id="paint10_linear_4_1330" x1="129.287" y1="-36.0769" x2="36.4259" y2="79.4721" gradientUnits="userSpaceOnUse">
      <stop stop-color="#99F3F5"/>
      <stop offset="1" stop-color="#99F3F5" stop-opacity="0"/>
    </linearGradient>
    <linearGradient id="paint11_linear_4_1330" x1="129.287" y1="-36.0769" x2="36.4259" y2="79.4721" gradientUnits="userSpaceOnUse">
      <stop stop-color="#99F3F5"/>
      <stop offset="1" stop-color="#99F3F5" stop-opacity="0"/>
    </linearGradient>
    <linearGradient id="paint12_linear_4_1330" x1="129.287" y1="-36.0769" x2="36.4259" y2="79.4721" gradientUnits="userSpaceOnUse">
      <stop stop-color="#99F3F5"/>
      <stop offset="1" stop-color="#99F3F5" stop-opacity="0"/>
    </linearGradient>
    <linearGradient id="paint13_linear_4_1330" x1="129.287" y1="-36.0769" x2="36.4259" y2="79.4721" gradientUnits="userSpaceOnUse">
      <stop stop-color="#99F3F5"/>
      <stop offset="1" stop-color="#99F3F5" stop-opacity="0"/>
    </linearGradient>
    <linearGradient id="paint14_linear_4_1330" x1="129.287" y1="-36.0769" x2="36.4259" y2="79.4721" gradientUnits="userSpaceOnUse">
      <stop stop-color="#99F3F5"/>
      <stop offset="1" stop-color="#99F3F5" stop-opacity="0"/>
    </linearGradient>
    <linearGradient id="paint15_linear_4_1330" x1="129.287" y1="-36.0769" x2="36.4259" y2="79.4721" gradientUnits="userSpaceOnUse">
      <stop stop-color="#99F3F5"/>
      <stop offset="1" stop-color="#99F3F5" stop-opacity="0"/>
    </linearGradient>
    <linearGradient id="paint16_linear_4_1330" x1="129.287" y1="-36.0769" x2="36.4259" y2="79.4721" gradientUnits="userSpaceOnUse">
      <stop stop-color="#99F3F5"/>
      <stop offset="1" stop-color="#99F3F5" stop-opacity="0"/>
    </linearGradient>
    <linearGradient id="paint17_linear_4_1330" x1="129.287" y1="-36.0769" x2="36.4259" y2="79.4721" gradientUnits="userSpaceOnUse">
      <stop stop-color="#99F3F5"/>
      <stop offset="1" stop-color="#99F3F5" stop-opacity="0"/>
    </linearGradient>
    <linearGradient id="paint18_linear_4_1330" x1="129.287" y1="-36.0769" x2="36.4259" y2="79.4721" gradientUnits="userSpaceOnUse">
      <stop stop-color="#99F3F5"/>
      <stop offset="1" stop-color="#99F3F5" stop-opacity="0"/>
    </linearGradient>
    <linearGradient id="paint19_linear_4_1330" x1="129.287" y1="-36.0769" x2="36.4259" y2="79.4721" gradientUnits="userSpaceOnUse">
      <stop stop-color="#99F3F5"/>
      <stop offset="1" stop-color="#99F3F5" stop-opacity="0"/>
    </linearGradient>
    <linearGradient id="paint20_linear_4_1330" x1="129.287" y1="-36.0769" x2="36.4259" y2="79.4721" gradientUnits="userSpaceOnUse">
      <stop stop-color="#99F3F5"/>
      <stop offset="1" stop-color="#99F3F5" stop-opacity="0"/>
    </linearGradient>
    <linearGradient id="paint21_linear_4_1330" x1="129.287" y1="-36.0769" x2="36.4259" y2="79.4721" gradientUnits="userSpaceOnUse">
      <stop stop-color="#99F3F5"/>
      <stop offset="1" stop-color="#99F3F5" stop-opacity="0"/>
    </linearGradient>
    <linearGradient id="paint22_linear_4_1330" x1="129.287" y1="-36.0769" x2="36.4259" y2="79.4721" gradientUnits="userSpaceOnUse">
      <stop stop-color="#99F3F5"/>
      <stop offset="1" stop-color="#99F3F5" stop-opacity="0"/>
    </linearGradient>
    <linearGradient id="paint23_linear_4_1330" x1="129.287" y1="-36.0769" x2="36.4259" y2="79.4721" gradientUnits="userSpaceOnUse">
      <stop stop-color="#99F3F5"/>
      <stop offset="1" stop-color="#99F3F5" stop-opacity="0"/>
    </linearGradient>
    <linearGradient id="paint24_linear_4_1330" x1="129.287" y1="-36.0769" x2="36.4259" y2="79.4721" gradientUnits="userSpaceOnUse">
      <stop stop-color="#99F3F5"/>
      <stop offset="1" stop-color="#99F3F5" stop-opacity="0"/>
    </linearGradient>
    <linearGradient id="paint25_linear_4_1330" x1="129.287" y1="-36.0769" x2="36.4259" y2="79.4721" gradientUnits="userSpaceOnUse">
      <stop stop-color="#99F3F5"/>
      <stop offset="1" stop-color="#99F3F5" stop-opacity="0"/>
    </linearGradient>
    <linearGradient id="paint26_linear_4_1330" x1="129.287" y1="-36.0769" x2="36.4259" y2="79.4721" gradientUnits="userSpaceOnUse">
      <stop stop-color="#99F3F5"/>
      <stop offset="1" stop-color="#99F3F5" stop-opacity="0"/>
    </linearGradient>
    <linearGradient id="paint27_linear_4_1330" x1="129.287" y1="-36.0769" x2="36.4259" y2="79.4721" gradientUnits="userSpaceOnUse">
      <stop stop-color="#99F3F5"/>
      <stop offset="1" stop-color="#99F3F5" stop-opacity="0"/>
    </linearGradient>
    <linearGradient id="paint28_linear_4_1330" x1="129.287" y1="-36.0769" x2="36.4259" y2="79.4721" gradientUnits="userSpaceOnUse">
      <stop stop-color="#99F3F5"/>
      <stop offset="1" stop-color="#99F3F5" stop-opacity="0"/>
    </linearGradient>
    <linearGradient id="paint29_linear_4_1330" x1="129.287" y1="-36.0769" x2="36.4259" y2="79.4721" gradientUnits="userSpaceOnUse">
      <stop stop-color="#99F3F5"/>
      <stop offset="1" stop-color="#99F3F5" stop-opacity="0"/>
    </linearGradient>
    <linearGradient id="paint30_linear_4_1330" x1="129.287" y1="-36.0769" x2="36.4259" y2="79.4721" gradientUnits="userSpaceOnUse">
      <stop stop-color="#99F3F5"/>
      <stop offset="1" stop-color="#99F3F5" stop-opacity="0"/>
    </linearGradient>
    <linearGradient id="paint31_linear_4_1330" x1="129.287" y1="-36.0769" x2="36.4259" y2="79.4721" gradientUnits="userSpaceOnUse">
      <stop stop-color="#99F3F5"/>
      <stop offset="1" stop-color="#99F3F5" stop-opacity="0"/>
    </linearGradient>
    <linearGradient id="paint32_linear_4_1330" x1="129.287" y1="-36.0769" x2="36.4259" y2="79.4721" gradientUnits="userSpaceOnUse">
      <stop stop-color="#99F3F5"/>
      <stop offset="1" stop-color="#99F3F5" stop-opacity="0"/>
    </linearGradient>
    <linearGradient id="paint33_linear_4_1330" x1="129.287" y1="-36.0769" x2="36.4259" y2="79.4721" gradientUnits="userSpaceOnUse">
      <stop stop-color="#99F3F5"/>
      <stop offset="1" stop-color="#99F3F5" stop-opacity="0"/>
    </linearGradient>
    <linearGradient id="paint34_linear_4_1330" x1="129.287" y1="-36.0769" x2="36.4259" y2="79.4721" gradientUnits="userSpaceOnUse">
      <stop stop-color="#99F3F5"/>
      <stop offset="1" stop-color="#99F3F5" stop-opacity="0"/>
    </linearGradient>
    <linearGradient id="paint35_linear_4_1330" x1="129.287" y1="-36.0769" x2="36.4259" y2="79.4721" gradientUnits="userSpaceOnUse">
      <stop stop-color="#99F3F5"/>
      <stop offset="1" stop-color="#99F3F5" stop-opacity="0"/>
    </linearGradient>
    <linearGradient id="paint36_linear_4_1330" x1="129.287" y1="-36.0769" x2="36.4259" y2="79.4721" gradientUnits="userSpaceOnUse">
      <stop stop-color="#99F3F5"/>
      <stop offset="1" stop-color="#99F3F5" stop-opacity="0"/>
    </linearGradient>
    <linearGradient id="paint37_linear_4_1330" x1="129.287" y1="-36.0769" x2="36.4259" y2="79.4721" gradientUnits="userSpaceOnUse">
      <stop stop-color="#99F3F5"/>
      <stop offset="1" stop-color="#99F3F5" stop-opacity="0"/>
    </linearGradient>
    <linearGradient id="paint38_linear_4_1330" x1="129.287" y1="-36.0769" x2="36.4259" y2="79.4721" gradientUnits="userSpaceOnUse">
      <stop stop-color="#99F3F5"/>
      <stop offset="1" stop-color="#99F3F5" stop-opacity="0"/>
    </linearGradient>
    <linearGradient id="paint39_linear_4_1330" x1="129.287" y1="-36.0769" x2="36.4259" y2="79.4721" gradientUnits="userSpaceOnUse">
      <stop stop-color="#99F3F5"/>
      <stop offset="1" stop-color="#99F3F5" stop-opacity="0"/>
    </linearGradient>
    <linearGradient id="paint40_linear_4_1330" x1="129.287" y1="-36.0769" x2="36.4259" y2="79.4721" gradientUnits="userSpaceOnUse">
      <stop stop-color="#99F3F5"/>
      <stop offset="1" stop-color="#99F3F5" stop-opacity="0"/>
    </linearGradient>
    <linearGradient id="paint41_linear_4_1330" x1="129.287" y1="-36.0769" x2="36.4259" y2="79.4721" gradientUnits="userSpaceOnUse">
      <stop stop-color="#99F3F5"/>
      <stop offset="1" stop-color="#99F3F5" stop-opacity="0"/>
    </linearGradient>
    <linearGradient id="paint42_linear_4_1330" x1="129.287" y1="-36.0769" x2="36.4259" y2="79.4721" gradientUnits="userSpaceOnUse">
      <stop stop-color="#99F3F5"/>
      <stop offset="1" stop-color="#99F3F5" stop-opacity="0"/>
    </linearGradient>
    <linearGradient id="paint43_linear_4_1330" x1="129.287" y1="-36.0769" x2="36.4259" y2="79.4721" gradientUnits="userSpaceOnUse">
      <stop stop-color="#99F3F5"/>
      <stop offset="1" stop-color="#99F3F5" stop-opacity="0"/>
    </linearGradient>
    <linearGradient id="paint44_linear_4_1330" x1="129.287" y1="-36.0769" x2="36.4259" y2="79.4721" gradientUnits="userSpaceOnUse">
      <stop stop-color="#99F3F5"/>
      <stop offset="1" stop-color="#99F3F5" stop-opacity="0"/>
    </linearGradient>
    <linearGradient id="paint45_linear_4_1330" x1="129.287" y1="-36.0769" x2="36.4259" y2="79.4721" gradientUnits="userSpaceOnUse">
      <stop stop-color="#99F3F5"/>
      <stop offset="1" stop-color="#99F3F5" stop-opacity="0"/>
    </linearGradient>
    <linearGradient id="paint46_linear_4_1330" x1="129.287" y1="-36.0769" x2="36.4259" y2="79.4721" gradientUnits="userSpaceOnUse">
      <stop stop-color="#99F3F5"/>
      <stop offset="1" stop-color="#99F3F5" stop-opacity="0"/>
    </linearGradient>
    <linearGradient id="paint47_linear_4_1330" x1="129.287" y1="-36.0769" x2="36.4259" y2="79.4721" gradientUnits="userSpaceOnUse">
      <stop stop-color="#99F3F5"/>
      <stop offset="1" stop-color="#99F3F5" stop-opacity="0"/>
    </linearGradient>
    <linearGradient id="paint48_linear_4_1330" x1="129.287" y1="-36.0769" x2="36.4259" y2="79.4721" gradientUnits="userSpaceOnUse">
      <stop stop-color="#99F3F5"/>
      <stop offset="1" stop-color="#99F3F5" stop-opacity="0"/>
    </linearGradient>
    <linearGradient id="paint49_linear_4_1330" x1="129.287" y1="-36.0769" x2="36.4259" y2="79.4721" gradientUnits="userSpaceOnUse">
      <stop stop-color="#99F3F5"/>
      <stop offset="1" stop-color="#99F3F5" stop-opacity="0"/>
    </linearGradient>
    <linearGradient id="paint50_linear_4_1330" x1="129.287" y1="-36.0769" x2="36.4259" y2="79.4721" gradientUnits="userSpaceOnUse">
      <stop stop-color="#99F3F5"/>
      <stop offset="1" stop-color="#99F3F5" stop-opacity="0"/>
    </linearGradient>
    <linearGradient id="paint51_linear_4_1330" x1="129.287" y1="-36.0769" x2="36.4259" y2="79.4721" gradientUnits="userSpaceOnUse">
      <stop stop-color="#99F3F5"/>
      <stop offset="1" stop-color="#99F3F5" stop-opacity="0"/>
    </linearGradient>
    <linearGradient id="paint52_linear_4_1330" x1="129.287" y1="-36.0769" x2="36.4259" y2="79.4721" gradientUnits="userSpaceOnUse">
      <stop stop-color="#99F3F5"/>
      <stop offset="1" stop-color="#99F3F5" stop-opacity="0"/>
    </linearGradient>
    <linearGradient id="paint53_linear_4_1330" x1="129.287" y1="-36.0769" x2="36.4259" y2="79.4721" gradientUnits="userSpaceOnUse">
      <stop stop-color="#99F3F5"/>
      <stop offset="1" stop-color="#99F3F5" stop-opacity="0"/>
    </linearGradient>
    <linearGradient id="paint54_linear_4_1330" x1="129.287" y1="-36.0769" x2="36.4259" y2="79.4721" gradientUnits="userSpaceOnUse">
      <stop stop-color="#99F3F5"/>
      <stop offset="1" stop-color="#99F3F5" stop-opacity="0"/>
    </linearGradient>
    <linearGradient id="paint55_linear_4_1330" x1="129.287" y1="-36.0769" x2="36.4259" y2="79.4721" gradientUnits="userSpaceOnUse">
      <stop stop-color="#99F3F5"/>
      <stop offset="1" stop-color="#99F3F5" stop-opacity="0"/>
    </linearGradient>
    <linearGradient id="paint56_linear_4_1330" x1="129.287" y1="-36.0769" x2="36.4259" y2="79.4721" gradientUnits="userSpaceOnUse">
      <stop stop-color="#99F3F5"/>
      <stop offset="1" stop-color="#99F3F5" stop-opacity="0"/>
    </linearGradient>
    <linearGradient id="paint57_linear_4_1330" x1="129.287" y1="-36.0769" x2="36.4259" y2="79.4721" gradientUnits="userSpaceOnUse">
      <stop stop-color="#99F3F5"/>
      <stop offset="1" stop-color="#99F3F5" stop-opacity="0"/>
    </linearGradient>
    <linearGradient id="paint58_linear_4_1330" x1="129.287" y1="-36.0769" x2="36.4259" y2="79.4721" gradientUnits="userSpaceOnUse">
      <stop stop-color="#99F3F5"/>
      <stop offset="1" stop-color="#99F3F5" stop-opacity="0"/>
    </linearGradient>
    <linearGradient id="paint59_linear_4_1330" x1="129.287" y1="-36.0769" x2="36.4259" y2="79.4721" gradientUnits="userSpaceOnUse">
      <stop stop-color="#99F3F5"/>
      <stop offset="1" stop-color="#99F3F5" stop-opacity="0"/>
    </linearGradient>
    <linearGradient id="paint60_linear_4_1330" x1="129.287" y1="-36.0769" x2="36.4259" y2="79.4721" gradientUnits="userSpaceOnUse">
      <stop stop-color="#99F3F5"/>
      <stop offset="1" stop-color="#99F3F5" stop-opacity="0"/>
    </linearGradient>
    <linearGradient id="paint61_linear_4_1330" x1="129.287" y1="-36.0769" x2="36.4259" y2="79.4721" gradientUnits="userSpaceOnUse">
      <stop stop-color="#99F3F5"/>
      <stop offset="1" stop-color="#99F3F5" stop-opacity="0"/>
    </linearGradient>
    <linearGradient id="paint62_linear_4_1330" x1="129.287" y1="-36.0769" x2="36.4259" y2="79.4721" gradientUnits="userSpaceOnUse">
      <stop stop-color="#99F3F5"/>
      <stop offset="1" stop-color="#99F3F5" stop-opacity="0"/>
    </linearGradient>
    <linearGradient id="paint63_linear_4_1330" x1="129.287" y1="-36.0769" x2="36.4259" y2="79.4721" gradientUnits="userSpaceOnUse">
      <stop stop-color="#99F3F5"/>
      <stop offset="1" stop-color="#99F3F5" stop-opacity="0"/>
    </linearGradient>
    <linearGradient id="paint64_linear_4_1330" x1="129.287" y1="-36.0769" x2="36.4259" y2="79.4721" gradientUnits="userSpaceOnUse">
      <stop stop-color="#99F3F5"/>
      <stop offset="1" stop-color="#99F3F5" stop-opacity="0"/>
    </linearGradient>
    <linearGradient id="paint65_linear_4_1330" x1="129.287" y1="-36.0769" x2="36.4259" y2="79.4721" gradientUnits="userSpaceOnUse">
      <stop stop-color="#99F3F5"/>
      <stop offset="1" stop-color="#99F3F5" stop-opacity="0"/>
    </linearGradient>
    <linearGradient id="paint66_linear_4_1330" x1="129.287" y1="-36.0769" x2="36.4259" y2="79.4721" gradientUnits="userSpaceOnUse">
      <stop stop-color="#99F3F5"/>
      <stop offset="1" stop-color="#99F3F5" stop-opacity="0"/>
    </linearGradient>
    <linearGradient id="paint67_linear_4_1330" x1="129.287" y1="-36.0769" x2="36.4259" y2="79.4721" gradientUnits="userSpaceOnUse">
      <stop stop-color="#99F3F5"/>
      <stop offset="1" stop-color="#99F3F5" stop-opacity="0"/>
    </linearGradient>
    <linearGradient id="paint68_linear_4_1330" x1="129.287" y1="-36.0769" x2="36.4259" y2="79.4721" gradientUnits="userSpaceOnUse">
      <stop stop-color="#99F3F5"/>
      <stop offset="1" stop-color="#99F3F5" stop-opacity="0"/>
    </linearGradient>
    <linearGradient id="paint69_linear_4_1330" x1="129.287" y1="-36.0769" x2="36.4259" y2="79.4721" gradientUnits="userSpaceOnUse">
      <stop stop-color="#99F3F5"/>
      <stop offset="1" stop-color="#99F3F5" stop-opacity="0"/>
    </linearGradient>
    <linearGradient id="paint70_linear_4_1330" x1="129.287" y1="-36.0769" x2="36.4259" y2="79.4721" gradientUnits="userSpaceOnUse">
      <stop stop-color="#99F3F5"/>
      <stop offset="1" stop-color="#99F3F5" stop-opacity="0"/>
    </linearGradient>
    <linearGradient id="paint71_linear_4_1330" x1="129.287" y1="-36.0769" x2="36.4259" y2="79.4721" gradientUnits="userSpaceOnUse">
      <stop stop-color="#99F3F5"/>
      <stop offset="1" stop-color="#99F3F5" stop-opacity="0"/>
    </linearGradient>
    <linearGradient id="paint72_linear_4_1330" x1="129.287" y1="-36.0769" x2="36.4259" y2="79.4721" gradientUnits="userSpaceOnUse">
      <stop stop-color="#99F3F5"/>
      <stop offset="1" stop-color="#99F3F5" stop-opacity="0"/>
    </linearGradient>
    <linearGradient id="paint73_linear_4_1330" x1="129.287" y1="-36.0769" x2="36.4259" y2="79.4721" gradientUnits="userSpaceOnUse">
      <stop stop-color="#99F3F5"/>
      <stop offset="1" stop-color="#99F3F5" stop-opacity="0"/>
    </linearGradient>
    <linearGradient id="paint74_linear_4_1330" x1="129.287" y1="-36.0769" x2="36.4259" y2="79.4721" gradientUnits="userSpaceOnUse">
      <stop stop-color="#99F3F5"/>
      <stop offset="1" stop-color="#99F3F5" stop-opacity="0"/>
    </linearGradient>
    <linearGradient id="paint75_linear_4_1330" x1="129.287" y1="-36.0769" x2="36.4259" y2="79.4721" gradientUnits="userSpaceOnUse">
      <stop stop-color="#99F3F5"/>
      <stop offset="1" stop-color="#99F3F5" stop-opacity="0"/>
    </linearGradient>
    <linearGradient id="paint76_linear_4_1330" x1="129.287" y1="-36.0769" x2="36.4259" y2="79.4721" gradientUnits="userSpaceOnUse">
      <stop stop-color="#99F3F5"/>
      <stop offset="1" stop-color="#99F3F5" stop-opacity="0"/>
    </linearGradient>
    <linearGradient id="paint77_linear_4_1330" x1="129.287" y1="-36.0769" x2="36.4259" y2="79.4721" gradientUnits="userSpaceOnUse">
      <stop stop-color="#99F3F5"/>
      <stop offset="1" stop-color="#99F3F5" stop-opacity="0"/>
    </linearGradient>
    <linearGradient id="paint78_linear_4_1330" x1="129.287" y1="-36.0769" x2="36.4259" y2="79.4721" gradientUnits="userSpaceOnUse">
      <stop stop-color="#99F3F5"/>
      <stop offset="1" stop-color="#99F3F5" stop-opacity="0"/>
    </linearGradient>
    <linearGradient id="paint79_linear_4_1330" x1="129.287" y1="-36.0769" x2="36.4259" y2="79.4721" gradientUnits="userSpaceOnUse">
      <stop stop-color="#99F3F5"/>
      <stop offset="1" stop-color="#99F3F5" stop-opacity="0"/>
    </linearGradient>
    <linearGradient id="paint80_linear_4_1330" x1="129.287" y1="-36.0769" x2="36.4259" y2="79.4721" gradientUnits="userSpaceOnUse">
      <stop stop-color="#99F3F5"/>
      <stop offset="1" stop-color="#99F3F5" stop-opacity="0"/>
    </linearGradient>
    <linearGradient id="paint81_linear_4_1330" x1="129.287" y1="-36.0769" x2="36.4259" y2="79.4721" gradientUnits="userSpaceOnUse">
      <stop stop-color="#99F3F5"/>
      <stop offset="1" stop-color="#99F3F5" stop-opacity="0"/>
    </linearGradient>
    <linearGradient id="paint82_linear_4_1330" x1="129.287" y1="-36.0769" x2="36.4259" y2="79.4721" gradientUnits="userSpaceOnUse">
      <stop stop-color="#99F3F5"/>
      <stop offset="1" stop-color="#99F3F5" stop-opacity="0"/>
    </linearGradient>
    <linearGradient id="paint83_linear_4_1330" x1="129.287" y1="-36.0769" x2="36.4259" y2="79.4721" gradientUnits="userSpaceOnUse">
      <stop stop-color="#99F3F5"/>
      <stop offset="1" stop-color="#99F3F5" stop-opacity="0"/>
    </linearGradient>
    <linearGradient id="paint84_linear_4_1330" x1="129.287" y1="-36.0769" x2="36.4259" y2="79.4721" gradientUnits="userSpaceOnUse">
      <stop stop-color="#99F3F5"/>
      <stop offset="1" stop-color="#99F3F5" stop-opacity="0"/>
    </linearGradient>
    <linearGradient id="paint85_linear_4_1330" x1="129.287" y1="-36.0769" x2="36.4259" y2="79.4721" gradientUnits="userSpaceOnUse">
      <stop stop-color="#99F3F5"/>
      <stop offset="1" stop-color="#99F3F5" stop-opacity="0"/>
    </linearGradient>
    <linearGradient id="paint86_linear_4_1330" x1="129.287" y1="-36.0769" x2="36.4259" y2="79.4721" gradientUnits="userSpaceOnUse">
      <stop stop-color="#99F3F5"/>
      <stop offset="1" stop-color="#99F3F5" stop-opacity="0"/>
    </linearGradient>
    <linearGradient id="paint87_linear_4_1330" x1="129.287" y1="-36.0769" x2="36.4259" y2="79.4721" gradientUnits="userSpaceOnUse">
      <stop stop-color="#99F3F5"/>
      <stop offset="1" stop-color="#99F3F5" stop-opacity="0"/>
    </linearGradient>
    <linearGradient id="paint88_linear_4_1330" x1="129.287" y1="-36.0769" x2="36.4259" y2="79.4721" gradientUnits="userSpaceOnUse">
      <stop stop-color="#99F3F5"/>
      <stop offset="1" stop-color="#99F3F5" stop-opacity="0"/>
    </linearGradient>
    <linearGradient id="paint89_linear_4_1330" x1="129.287" y1="-36.0769" x2="36.4259" y2="79.4721" gradientUnits="userSpaceOnUse">
      <stop stop-color="#99F3F5"/>
      <stop offset="1" stop-color="#99F3F5" stop-opacity="0"/>
    </linearGradient>
  </defs>
</svg>