<svg xmlns="http://www.w3.org/2000/svg" width="88" height="88" viewBox="0 0 88 88" fill="none">
  <ellipse cx="29.4385" cy="60.0021" rx="16.8388" ry="16.8388" transform="rotate(-21.0468 29.4385 60.0021)" fill="url(#paint0_linear_4_1293)" fill-opacity="0.8"/>
  <g filter="url(#filter0_b_4_1293)">
    <path fill-rule="evenodd" clip-rule="evenodd" d="M63.6767 56.8208L71.5344 53.7971C74.4286 52.6834 75.8708 49.4372 74.7571 46.5429L61.6546 12.4929C60.5409 9.59863 57.2946 8.15647 54.4004 9.27018L12.4926 25.3963C9.59836 26.5101 8.15621 29.7563 9.26992 32.6506L22.3724 66.7006C23.4861 69.5949 26.7324 71.037 29.6267 69.9233L53.1998 60.8523" fill="url(#paint1_linear_4_1293)" fill-opacity="0.8"/>
    <path d="M63.6767 56.8208L71.5344 53.7971C74.4286 52.6834 75.8708 49.4372 74.7571 46.5429L61.6546 12.4929C60.5409 9.59863 57.2946 8.15647 54.4004 9.27018L12.4926 25.3963C9.59836 26.5101 8.15621 29.7563 9.26992 32.6506L22.3724 66.7006C23.4861 69.5949 26.7324 71.037 29.6267 69.9233L53.1998 60.8523" stroke="url(#paint2_radial_4_1293)" stroke-opacity="0.8" stroke-width="1.5" stroke-linecap="round"/>
  </g>
  <g filter="url(#filter1_b_4_1293)">
    <path fill-rule="evenodd" clip-rule="evenodd" d="M29.1165 29.5245L44.8319 23.4772Z" fill="url(#paint3_linear_4_1293)" fill-opacity="0.8"/>
    <path d="M29.1165 29.5245L44.8319 23.4772" stroke="url(#paint4_radial_4_1293)" stroke-opacity="0.8" stroke-width="1.5" stroke-linecap="round"/>
  </g>
  <g filter="url(#filter2_b_4_1293)">
    <path fill-rule="evenodd" clip-rule="evenodd" d="M56.2172 29.6208L24.7864 41.7154Z" fill="url(#paint5_linear_4_1293)" fill-opacity="0.8"/>
    <path d="M56.2172 29.6208L24.7864 41.7154" stroke="url(#paint6_radial_4_1293)" stroke-opacity="0.8" stroke-width="1.5" stroke-linecap="round"/>
  </g>
  <g filter="url(#filter3_b_4_1293)">
    <path fill-rule="evenodd" clip-rule="evenodd" d="M30.3299 56.1211L38.1876 53.0975Z" fill="url(#paint7_linear_4_1293)" fill-opacity="0.8"/>
    <path d="M30.3299 56.1211L38.1876 53.0975" stroke="url(#paint8_radial_4_1293)" stroke-opacity="0.8" stroke-width="1.5" stroke-linecap="round"/>
  </g>
  <path d="M57.8249 40.6656C62.0743 42.5535 63.9888 47.5287 62.101 51.7781C60.2132 56.0275 55.238 57.942 50.9885 56.0542C46.7391 54.1664 44.8246 49.1912 46.7125 44.9417C48.6003 40.6923 53.5755 38.7778 57.8249 40.6656" stroke="white" stroke-opacity="0.8" stroke-width="1.5" stroke-linecap="round" stroke-linejoin="round"/>
  <path d="M61.8839 52.1613L66.7006 64.6786L60.4542 64.0752L56.2237 68.7102L51.407 56.1929" stroke="white" stroke-opacity="0.8" stroke-width="1.5" stroke-linecap="round" stroke-linejoin="round"/>
  <defs>
    <filter id="filter0_b_4_1293" x="-0.856445" y="-0.856445" width="85.74" height="80.9062" filterUnits="userSpaceOnUse" color-interpolation-filters="sRGB">
      <feFlood flood-opacity="0" result="BackgroundImageFix"/>
      <feGaussianBlur in="BackgroundImageFix" stdDeviation="4.5"/>
      <feComposite in2="SourceAlpha" operator="in" result="effect1_backgroundBlur_4_1293"/>
      <feBlend mode="normal" in="SourceGraphic" in2="effect1_backgroundBlur_4_1293" result="shape"/>
    </filter>
    <filter id="filter1_b_4_1293" x="19.3662" y="13.7271" width="35.2158" height="25.5479" filterUnits="userSpaceOnUse" color-interpolation-filters="sRGB">
      <feFlood flood-opacity="0" result="BackgroundImageFix"/>
      <feGaussianBlur in="BackgroundImageFix" stdDeviation="4.5"/>
      <feComposite in2="SourceAlpha" operator="in" result="effect1_backgroundBlur_4_1293"/>
      <feBlend mode="normal" in="SourceGraphic" in2="effect1_backgroundBlur_4_1293" result="shape"/>
    </filter>
    <filter id="filter2_b_4_1293" x="15.0361" y="19.8706" width="50.9314" height="31.5952" filterUnits="userSpaceOnUse" color-interpolation-filters="sRGB">
      <feFlood flood-opacity="0" result="BackgroundImageFix"/>
      <feGaussianBlur in="BackgroundImageFix" stdDeviation="4.5"/>
      <feComposite in2="SourceAlpha" operator="in" result="effect1_backgroundBlur_4_1293"/>
      <feBlend mode="normal" in="SourceGraphic" in2="effect1_backgroundBlur_4_1293" result="shape"/>
    </filter>
    <filter id="filter3_b_4_1293" x="20.5796" y="43.3472" width="27.3582" height="22.5244" filterUnits="userSpaceOnUse" color-interpolation-filters="sRGB">
      <feFlood flood-opacity="0" result="BackgroundImageFix"/>
      <feGaussianBlur in="BackgroundImageFix" stdDeviation="4.5"/>
      <feComposite in2="SourceAlpha" operator="in" result="effect1_backgroundBlur_4_1293"/>
      <feBlend mode="normal" in="SourceGraphic" in2="effect1_backgroundBlur_4_1293" result="shape"/>
    </filter>
    <linearGradient id="paint0_linear_4_1293" x1="46.2772" y1="68.4214" x2="-2.55515" y2="87.786" gradientUnits="userSpaceOnUse">
      <stop stop-color="#41B5D9" stop-opacity="0"/>
      <stop offset="1" stop-color="#41B5D9"/>
    </linearGradient>
    <linearGradient id="paint1_linear_4_1293" x1="-62.2646" y1="3.04284" x2="17.5878" y2="100.35" gradientUnits="userSpaceOnUse">
      <stop stop-color="white" stop-opacity="0.4"/>
      <stop offset="1" stop-color="white" stop-opacity="0"/>
    </linearGradient>
    <radialGradient id="paint2_radial_4_1293" cx="0" cy="0" r="1" gradientUnits="userSpaceOnUse" gradientTransform="translate(42.0135 39.5967) rotate(68.9532) scale(23.8549 21.828)">
      <stop stop-color="white"/>
      <stop offset="1" stop-color="white" stop-opacity="0.5"/>
    </radialGradient>
    <linearGradient id="paint3_linear_4_1293" x1="11.8893" y1="31.6429" x2="15.1496" y2="38.711" gradientUnits="userSpaceOnUse">
      <stop stop-color="white" stop-opacity="0.4"/>
      <stop offset="1" stop-color="white" stop-opacity="0"/>
    </linearGradient>
    <radialGradient id="paint4_radial_4_1293" cx="0" cy="0" r="1" gradientUnits="userSpaceOnUse" gradientTransform="translate(36.9742 26.5008) rotate(68.9532) scale(1.40323 6.5484)">
      <stop stop-color="white"/>
      <stop offset="1" stop-color="white" stop-opacity="0.5"/>
    </radialGradient>
    <linearGradient id="paint5_linear_4_1293" x1="-8.15621" y1="49.8811" x2="-5.12174" y2="57.0624" gradientUnits="userSpaceOnUse">
      <stop stop-color="white" stop-opacity="0.4"/>
      <stop offset="1" stop-color="white" stop-opacity="0"/>
    </linearGradient>
    <radialGradient id="paint6_radial_4_1293" cx="0" cy="0" r="1" gradientUnits="userSpaceOnUse" gradientTransform="translate(40.5018 35.6681) rotate(68.9532) scale(1.40323 13.0968)">
      <stop stop-color="white"/>
      <stop offset="1" stop-color="white" stop-opacity="0.5"/>
    </radialGradient>
    <linearGradient id="paint7_linear_4_1293" x1="20.9603" y1="55.2159" x2="24.645" y2="62.0171" gradientUnits="userSpaceOnUse">
      <stop stop-color="white" stop-opacity="0.4"/>
      <stop offset="1" stop-color="white" stop-opacity="0"/>
    </linearGradient>
    <radialGradient id="paint8_radial_4_1293" cx="0" cy="0" r="1" gradientUnits="userSpaceOnUse" gradientTransform="translate(34.2587 54.6093) rotate(68.9532) scale(1.40323 3.2742)">
      <stop stop-color="white"/>
      <stop offset="1" stop-color="white" stop-opacity="0.5"/>
    </radialGradient>
  </defs>
</svg>