<svg xmlns="http://www.w3.org/2000/svg" width="103" height="103" viewBox="0 0 103 103" fill="none">
  <ellipse cx="33.7213" cy="35.7021" rx="20.9063" ry="20.9063" transform="rotate(15 33.7213 35.7021)" fill="url(#paint0_linear_4_1286)" fill-opacity="0.8"/>
  <g filter="url(#filter0_b_4_1286)">
    <path fill-rule="evenodd" clip-rule="evenodd" d="M37.3286 22.2395L77.7166 33.0614L37.3286 22.2395Z" fill="url(#paint1_linear_4_1286)" fill-opacity="0.8"/>
    <path d="M37.3286 22.2395L77.7166 33.0614" stroke="url(#paint2_radial_4_1286)" stroke-opacity="0.8" stroke-width="1.5" stroke-linecap="round"/>
  </g>
  <g filter="url(#filter1_b_4_1286)">
    <path fill-rule="evenodd" clip-rule="evenodd" d="M46.7654 13.946L73.6907 21.1606L46.7654 13.946Z" fill="url(#paint3_linear_4_1286)" fill-opacity="0.8"/>
    <path d="M46.7654 13.946L73.6907 21.1606" stroke="url(#paint4_radial_4_1286)" stroke-opacity="0.8" stroke-width="1.5" stroke-linecap="round"/>
  </g>
  <g filter="url(#filter2_b_4_1286)">
    <path fill-rule="evenodd" clip-rule="evenodd" d="M68.5783 91.9369L15.8047 77.7962C11.7894 76.7204 9.40689 72.5937 10.4828 68.5785L19.2125 35.9988C20.2883 31.9836 24.415 29.6011 28.4302 30.677L81.2038 44.8176C85.2191 45.8935 87.6016 50.0201 86.5257 54.0354L77.796 86.615C76.7202 90.6302 72.5935 93.0128 68.5783 91.9369Z" fill="url(#paint5_linear_4_1286)" fill-opacity="0.8"/>
    <path fill-rule="evenodd" clip-rule="evenodd" d="M68.5783 91.9369L15.8047 77.7962C11.7894 76.7204 9.40689 72.5937 10.4828 68.5785L19.2125 35.9988C20.2883 31.9836 24.415 29.6011 28.4302 30.677L81.2038 44.8176C85.2191 45.8935 87.6016 50.0201 86.5257 54.0354L77.796 86.615C76.7202 90.6302 72.5935 93.0128 68.5783 91.9369Z" stroke="url(#paint6_radial_4_1286)" stroke-opacity="0.8" stroke-width="1.5" stroke-linecap="round"/>
  </g>
  <path fill-rule="evenodd" clip-rule="evenodd" d="M46.847 50.422L57.8419 61.6504C59.2329 63.0692 58.5917 65.4622 56.6776 65.9955L41.5415 70.2221C39.5917 70.7675 37.7902 68.9825 38.3142 67.0271L42.4544 51.5753C42.9784 49.6199 45.4311 48.9748 46.847 50.422V50.422Z" stroke="white" stroke-opacity="0.8" stroke-width="1.5" stroke-linecap="round" stroke-linejoin="round"/>
  <defs>
    <filter id="filter0_b_4_1286" x="27.5784" y="12.4893" width="59.8884" height="30.3223" filterUnits="userSpaceOnUse" color-interpolation-filters="sRGB">
      <feFlood flood-opacity="0" result="BackgroundImageFix"/>
      <feGaussianBlur in="BackgroundImageFix" stdDeviation="4.5"/>
      <feComposite in2="SourceAlpha" operator="in" result="effect1_backgroundBlur_4_1286"/>
      <feBlend mode="normal" in="SourceGraphic" in2="effect1_backgroundBlur_4_1286" result="shape"/>
    </filter>
    <filter id="filter1_b_4_1286" x="37.0151" y="4.1958" width="46.4258" height="26.7148" filterUnits="userSpaceOnUse" color-interpolation-filters="sRGB">
      <feFlood flood-opacity="0" result="BackgroundImageFix"/>
      <feGaussianBlur in="BackgroundImageFix" stdDeviation="4.5"/>
      <feComposite in2="SourceAlpha" operator="in" result="effect1_backgroundBlur_4_1286"/>
      <feBlend mode="normal" in="SourceGraphic" in2="effect1_backgroundBlur_4_1286" result="shape"/>
    </filter>
    <filter id="filter2_b_4_1286" x="0.474121" y="20.6685" width="96.0601" height="81.2769" filterUnits="userSpaceOnUse" color-interpolation-filters="sRGB">
      <feFlood flood-opacity="0" result="BackgroundImageFix"/>
      <feGaussianBlur in="BackgroundImageFix" stdDeviation="4.5"/>
      <feComposite in2="SourceAlpha" operator="in" result="effect1_backgroundBlur_4_1286"/>
      <feBlend mode="normal" in="SourceGraphic" in2="effect1_backgroundBlur_4_1286" result="shape"/>
    </filter>
    <linearGradient id="paint0_linear_4_1286" x1="54.6276" y1="52.4272" x2="7.58832" y2="14.7958" gradientUnits="userSpaceOnUse">
      <stop stop-color="#41B5D9" stop-opacity="0"/>
      <stop offset="1" stop-color="#41B5D9"/>
    </linearGradient>
    <linearGradient id="paint1_linear_4_1286" x1="-1.70659" y1="6.36906" x2="-3.907" y2="15.7949" gradientUnits="userSpaceOnUse">
      <stop stop-color="white" stop-opacity="0.4"/>
      <stop offset="1" stop-color="white" stop-opacity="0"/>
    </linearGradient>
    <radialGradient id="paint2_radial_4_1286" cx="0" cy="0" r="1" gradientUnits="userSpaceOnUse" gradientTransform="translate(57.5226 27.6504) rotate(105) scale(1.7422 16.2605)">
      <stop stop-color="white"/>
      <stop offset="1" stop-color="white" stop-opacity="0.5"/>
    </radialGradient>
    <linearGradient id="paint3_linear_4_1286" x1="21.1928" y1="1.68291" x2="19.1468" y2="11.1369" gradientUnits="userSpaceOnUse">
      <stop stop-color="white" stop-opacity="0.4"/>
      <stop offset="1" stop-color="white" stop-opacity="0"/>
    </linearGradient>
    <radialGradient id="paint4_radial_4_1286" cx="0" cy="0" r="1" gradientUnits="userSpaceOnUse" gradientTransform="translate(60.228 17.5533) rotate(105) scale(1.7422 10.8403)">
      <stop stop-color="white"/>
      <stop offset="1" stop-color="white" stop-opacity="0.5"/>
    </radialGradient>
    <linearGradient id="paint5_linear_4_1286" x1="-33.5273" y1="-36.4268" x2="-32.9391" y2="94.3741" gradientUnits="userSpaceOnUse">
      <stop stop-color="white" stop-opacity="0.4"/>
      <stop offset="1" stop-color="white" stop-opacity="0"/>
    </linearGradient>
    <radialGradient id="paint6_radial_4_1286" cx="0" cy="0" r="1" gradientUnits="userSpaceOnUse" gradientTransform="translate(48.5043 61.3069) rotate(105) scale(24.3907 27.1008)">
      <stop stop-color="white"/>
      <stop offset="1" stop-color="white" stop-opacity="0.5"/>
    </radialGradient>
  </defs>
</svg>