<svg xmlns="http://www.w3.org/2000/svg" width="54" height="27" viewBox="0 0 54 27" fill="none">
  <circle cx="13.5" cy="-6.75" r="13.5" fill="url(#paint0_linear_4_1274)"/>
  <g filter="url(#filter0_b_4_1274)">
    <path fill-rule="evenodd" clip-rule="evenodd" d="M44.64 22.5H9.36C6.67575 22.5 4.5 20.3243 4.5 17.64V-4.14C4.5 -6.82425 6.67575 -9 9.36 -9H44.64C47.3243 -9 49.5 -6.82425 49.5 -4.14V17.64C49.5 20.3243 47.3243 22.5 44.64 22.5Z" fill="url(#paint1_linear_4_1274)"/>
    <path fill-rule="evenodd" clip-rule="evenodd" d="M44.64 22.5H9.36C6.67575 22.5 4.5 20.3243 4.5 17.64V-4.14C4.5 -6.82425 6.67575 -9 9.36 -9H44.64C47.3243 -9 49.5 -6.82425 49.5 -4.14V17.64C49.5 20.3243 47.3243 22.5 44.64 22.5Z" stroke="url(#paint2_radial_4_1274)" stroke-width="1.5" stroke-linecap="round"/>
  </g>
  <path fill-rule="evenodd" clip-rule="evenodd" d="M24.147 0.237774L32.8815 5.40377C33.9862 6.05627 33.9862 7.65602 32.8815 8.30852L24.147 13.4745C23.022 14.1405 21.6 13.3283 21.6 12.021V1.69127C21.6 0.384024 23.022 -0.428226 24.147 0.237774V0.237774Z" stroke="white" stroke-width="1.5" stroke-linecap="round" stroke-linejoin="round"/>
  <defs>
    <filter id="filter0_b_4_1274" x="-5.25" y="-18.75" width="64.5" height="51" filterUnits="userSpaceOnUse" color-interpolation-filters="sRGB">
      <feFlood flood-opacity="0" result="BackgroundImageFix"/>
      <feGaussianBlur in="BackgroundImageFix" stdDeviation="4.5"/>
      <feComposite in2="SourceAlpha" operator="in" result="effect1_backgroundBlur_4_1274"/>
      <feBlend mode="normal" in="SourceGraphic" in2="effect1_backgroundBlur_4_1274" result="shape"/>
    </filter>
    <linearGradient id="paint0_linear_4_1274" x1="27" y1="4.05" x2="-3.375" y2="-20.25" gradientUnits="userSpaceOnUse">
      <stop stop-color="#41B5D9" stop-opacity="0"/>
      <stop offset="1" stop-color="#41B5D9"/>
    </linearGradient>
    <linearGradient id="paint1_linear_4_1274" x1="-40.5" y1="-40.5" x2="-18.2725" y2="40.9866" gradientUnits="userSpaceOnUse">
      <stop stop-color="white" stop-opacity="0.4"/>
      <stop offset="1" stop-color="white" stop-opacity="0"/>
    </linearGradient>
    <radialGradient id="paint2_radial_4_1274" cx="0" cy="0" r="1" gradientUnits="userSpaceOnUse" gradientTransform="translate(27 6.75) rotate(90) scale(15.75 17.5)">
      <stop stop-color="white"/>
      <stop offset="1" stop-color="white" stop-opacity="0.5"/>
    </radialGradient>
  </defs>
</svg>